<?xml version="1.0" encoding="UTF-8"?>
<svg width="256px" height="256px" viewBox="0 0 256 256" version="1.1" xmlns="http://www.w3.org/2000/svg" xmlns:xlink="http://www.w3.org/1999/xlink">
    <!-- Generator: Sketch 54.1 (76490) - https://sketchapp.com -->
    <title>AuchanLarge</title>
    <desc>Created with Sketch.</desc>
    <g id="AuchanLarge" stroke="none" stroke-width="1" fill="none" fill-rule="evenodd">
        <rect fill="#E0001A" x="0" y="0" width="256" height="256"></rect>
        <g id="Logo_Auchan_(2015)" transform="translate(70.000000, 75.000000)" fill-rule="nonzero">
            <path d="M109.249692,27.6859615 L99.7376923,27.6859615 L97.4266154,30.6024429 C97.0206154,31.0101229 97.1544615,31.4446829 97.5604615,31.5790829 L100.683538,32.9589229 L109.517385,28.8194015 C109.769616,28.6985071 109.903638,28.4172604 109.839144,28.1441856 C109.77465,27.8711109 109.529127,27.6802474 109.249692,27.6859615 L109.249692,27.6859615 Z" id="path22" fill="#4A835B"></path>
            <ellipse id="circle24" fill="#FFFFFF" transform="translate(88.574855, 31.015992) rotate(-45.078000) translate(-88.574855, -31.015992) " cx="88.5748548" cy="31.0159922" rx="2.64224531" ry="2.64221561"></ellipse>
            <path d="M73.9410769,74.5557229 L62.234,74.5557229 C59.6124562,76.0466167 56.8815143,77.3346169 54.0649231,78.4085229 C53.7749231,78.5339629 53.6589231,78.5922029 53.7972308,78.9954029 L64.2595385,108.142283 L69.9747692,108.142283 L60.3869231,81.5848429 L60.6456923,81.5848429 C66.8918462,81.5848429 81.7978462,80.0213229 89.8643077,66.9352429 C86.1134607,71.9329496 80.1693711,74.7776497 73.9410769,74.5557229 L73.9410769,74.5557229 Z M75.6007692,57.1240429 C76.2432308,56.1474029 76.8544615,55.0677229 77.4344615,54.0552429 C77.1667692,53.9118829 76.9258462,53.7416429 76.6581538,54.0238829 C68.4301403,63.4967973 56.3895837,68.7430379 43.8792308,68.3061229 L30.1198462,68.3061229 C29.7049231,68.3061229 29.3613846,67.9298029 29.6736923,67.5221229 C38.7351984,55.1173144 49.1757023,43.7904028 60.7929231,33.7608429 L37.7446154,53.2219629 C35.8268553,54.9161557 33.3521311,55.8370449 30.798,55.8069229 L1.798,55.8069229 C0.977076923,55.8069229 1.24923077,56.4027629 1.38307692,56.8104429 C3.68572757,64.2049366 10.6955854,69.0845268 18.3993846,68.6555629 L11.6133846,75.7832429 C11.3456923,76.0520429 11.3456923,76.8987629 12.0193846,76.8987629 L37.8963077,76.8987629 C53.0965671,77.6136635 67.5030278,70.0562484 75.6007692,57.1195629 L75.6007692,57.1240429 Z M67.9492308,86.5038829 L75.7033846,108.142283 L81.4275385,108.142283 L73.2361538,85.2942829 C71.5037427,85.8194578 69.7372154,86.2236232 67.9492308,86.5038829 L67.9492308,86.5038829 Z M109.321077,27.6859615 L99.7912308,27.6859615 L97.4801538,30.5890029 C97.0741538,31.0056429 97.2124615,31.4267629 97.614,31.5611629 L100.737077,32.9320429 L109.579846,28.8149215 C109.834038,28.698157 109.971469,28.4180534 109.908772,28.1445208 C109.846076,27.8709882 109.600528,27.6793952 109.321077,27.6859615 L109.321077,27.6859615 Z M90.4398462,32.8872429 C89.4080499,33.91539 87.7422205,33.9111121 86.7156748,32.8776792 C85.6891292,31.8442462 85.6891292,30.1715182 86.7156748,29.1380852 C87.7422205,28.1046523 89.4080499,28.1003744 90.4398462,29.1285215 C88.5821981,27.2804778 85.5853764,27.290987 83.7406283,29.1520142 C81.8958801,31.0130414 81.8993688,34.02228 83.7484269,35.8789894 C85.597485,37.7356988 88.594323,37.7392019 90.4476811,35.8868203 C92.3010392,34.0344387 92.3115051,31.0252164 90.4710769,29.1598815 C91.4833939,30.1994852 91.4694399,31.8648899 90.4398462,32.8872429 L90.4398462,32.8872429 Z" id="path26" fill="#00985F"></path>
            <circle id="circle28" fill="#FFFFFF" transform="translate(88.747866, 30.895447) rotate(-45.000000) translate(-88.747866, -30.895447) " cx="88.7478657" cy="30.8954471" r="2.23091875"></circle>
            <path d="M100.741538,32.9947629 L97.6184615,31.6059629 C97.2124615,31.4715629 97.0786154,31.0504429 97.4846154,30.6338029 L99.7956923,27.7531615 C96.6421744,22.9483164 91.2479677,20.1114101 85.5187692,20.2446815 C81.2412256,20.1879503 77.0450569,21.4207986 73.4726154,23.7838815 C69.063881,26.9077138 64.8238816,30.2649979 60.7706154,33.8414829 C49.1521112,43.8413887 38.7111412,55.1432532 29.6513846,67.5266029 C29.3613846,67.9342829 29.7049231,68.3106029 30.0975385,68.3106029 L43.8792308,68.3106029 C56.4025319,68.7292271 68.4480136,63.4639516 76.676,53.9746029 C76.868415,53.7395013 77.2117889,53.6998697 77.4523077,53.8850029 C77.7164939,54.0833061 77.7929081,54.4477756 77.6307692,54.7362029 C74.5769885,62.7276482 69.2253145,69.6265961 62.2563077,74.5557229 L73.9633846,74.5557229 C80.1808043,74.7672913 86.1109497,71.9236873 89.8553846,66.9352429 C95.4053472,56.3364395 99.0883228,44.8537835 100.741538,32.9947629 Z M83.7252308,35.8888429 C82.3614071,34.527933 81.949807,32.4753434 82.6828161,30.6904743 C83.4158253,28.9056053 85.1486632,27.7409959 87.0713846,27.7409959 C88.9941061,27.7409959 90.726944,28.9056053 91.4599531,30.6904743 C92.1929623,32.4753434 91.7813621,34.527933 90.4175385,35.8888429 C88.5656482,37.7308958 85.5815826,37.7308958 83.7296923,35.8888429 L83.7252308,35.8888429 Z M94.6827692,69.8293229 C90.8283157,76.0199622 85.1171912,80.8229779 78.3713846,83.5470829 L87.1561538,108.142283 L112.720769,108.142283 C107.607846,93.3000429 102.133538,78.7131629 96.9715385,65.4792429 C96.2755385,66.9173229 95.5081538,68.4987629 94.6872308,69.8293229 L94.6827692,69.8293229 Z M0,108.142283 L25.8769231,108.142283 L34.2467692,82.3643629 L8.99892308,82.3643629 C6.13907692,90.1774829 3.10969231,98.7701229 0,108.142283 L0,108.142283 Z M34.0638462,48.6299629 L48.9966154,36.1890029 C51.4638462,29.5048429 54.0024615,22.8878815 56.6570769,17.1803615 C57.9955385,20.2222815 59.2403077,23.2955615 60.5564615,26.5346015 C66.3207692,21.7544415 70.1041538,19.1739615 70.2915385,19.0485215 L70.3763077,19.0037215 C72.7286892,17.4163838 75.3132387,16.2071844 78.0367692,15.4197215 C74.6370769,7.95604154 72.2367692,2.68756154 71.0812308,0.344521536 L42.0946154,0.344521536 C39.6809231,5.81460154 30.6730769,24.5634015 20.1349231,49.5573229 L30.798,49.5573229 C31.9643402,49.67523 33.1317269,49.3437424 34.0638462,48.6299629 L34.0638462,48.6299629 Z" id="path30" fill="#FFFFFF"></path>
        </g>
    </g>
</svg>