<?xml version="1.0" encoding="UTF-8"?>
<svg version="1.1" xmlns="http://www.w3.org/2000/svg" width="102" height="100">
<path d="M0 0 C9.24 0 18.48 0 28 0 C28 5.61 28 11.22 28 17 C34.27 17 40.54 17 47 17 C47 15.68 47 14.36 47 13 C55.58 13 64.16 13 73 13 C73 10.36 73 7.72 73 5 C82.57 5 92.14 5 102 5 C102 20.84 102 36.68 102 53 C92.43 53 82.86 53 73 53 C73 51.02 73 49.04 73 47 C65.41 47 57.82 47 50 47 C50 48.98 50 50.96 50 53 C41.75 53 33.5 53 25 53 C25 51.35 25 49.7 25 48 C16.75 48 8.5 48 0 48 C0 32.16 0 16.32 0 0 Z " fill="#903B97" transform="translate(0,25)"/>
<path d="M0 0 C9.24 0 18.48 0 28 0 C28 5.61 28 11.22 28 17 C34.27 17 40.54 17 47 17 C47 26.9 47 36.8 47 47 C47.99 47 48.98 47 50 47 C50 48.98 50 50.96 50 53 C41.75 53 33.5 53 25 53 C25 51.35 25 49.7 25 48 C16.75 48 8.5 48 0 48 C0 32.16 0 16.32 0 0 Z " fill="#923F99" transform="translate(0,25)"/>
<path d="M0 0 C9.24 0 18.48 0 28 0 C28 5.61 28 11.22 28 17 C27.01 17 26.02 17 25 17 C24.67 18.32 24.34 19.64 24 21 C23.01 19.68 22.02 18.36 21 17 C18.62102997 16.95489639 18.62102997 16.95489639 16 18 C14.32150176 20.2308475 13.24000737 22.47405906 12 25 C11.67 25 11.34 25 11 25 C11 18.07 11 11.14 11 4 C9.68 4.33 8.36 4.66 7 5 C7.33 17.21 7.66 29.42 8 42 C8.99 42 9.98 42 11 42 C11.33 42.33 11.66 42.66 12 43 C14.87306228 43.50095023 14.87306228 43.50095023 18 43 C21.04699404 40.03764468 22.6305697 36.99417171 24 33 C24.33 33 24.66 33 25 33 C25 37.95 25 42.9 25 48 C16.75 48 8.5 48 0 48 C0 32.16 0 16.32 0 0 Z " fill="#38317E" transform="translate(0,25)"/>
<path d="M0 0 C8.58 0 17.16 0 26 0 C26 9.9 26 19.8 26 30 C25.34 30 24.68 30 24 30 C23.98018066 29.35450195 23.96036133 28.70900391 23.93994141 28.04394531 C23.84453672 25.11222779 23.73492029 22.18120768 23.625 19.25 C23.5940625 18.23421875 23.563125 17.2184375 23.53125 16.171875 C23.49257812 15.1921875 23.45390625 14.2125 23.4140625 13.203125 C23.36693115 11.85202637 23.36693115 11.85202637 23.31884766 10.47363281 C22.98862744 7.91177125 22.29048327 6.21872563 21 4 C18.52733235 4.34444881 18.52733235 4.34444881 16 5 C15.67 5.66 15.34 6.32 15 7 C15.9590625 7.2165625 15.9590625 7.2165625 16.9375 7.4375 C19 8 19 8 20 9 C20.09880797 10.47652664 20.13079245 11.95767236 20.1328125 13.4375 C20.13474609 14.77941406 20.13474609 14.77941406 20.13671875 16.1484375 C20.13285156 17.08945312 20.12898438 18.03046875 20.125 19 C20.13080078 20.41152344 20.13080078 20.41152344 20.13671875 21.8515625 C20.13542969 22.74617188 20.13414063 23.64078125 20.1328125 24.5625 C20.13168457 25.38878906 20.13055664 26.21507813 20.12939453 27.06640625 C20 29 20 29 19 30 C21.31 30.33 23.62 30.66 26 31 C26 31.99 26 32.98 26 34 C17.42 34 8.84 34 0 34 C0 22.78 0 11.56 0 0 Z " fill="#372F7C" transform="translate(47,38)"/>
<path d="M0 0 C2.31 0 4.62 0 7 0 C7.33 6.27 7.66 12.54 8 19 C9.32 17.02 10.64 15.04 12 13 C14.5625 11.9375 14.5625 11.9375 17 12 C18.625 12.984375 18.625 12.984375 20 15 C20.32685651 17.86514759 20.4642437 20.45092377 20.4375 23.3125 C20.4674707 24.43301758 20.4674707 24.43301758 20.49804688 25.57617188 C20.49252863 31.86145266 18.48781779 35.51218221 14 40 C9.94738713 40.34490322 8.45245824 40.30163882 5 38 C4.34 38.66 3.68 39.32 3 40 C3 27.13 3 14.26 3 1 C2.01 0.67 1.02 0.34 0 0 Z " fill="#E2E1EC" transform="translate(4,29)"/>
<path d="M0 0 C2.28911304 1.68372777 2.93176127 2.58778153 3.40063477 5.42016602 C3.41408936 6.35530029 3.42754395 7.29043457 3.44140625 8.25390625 C3.46783203 9.27291016 3.49425781 10.29191406 3.52148438 11.34179688 C3.53501953 12.40462891 3.54855469 13.46746094 3.5625 14.5625 C3.59685162 16.66812697 3.63940794 18.77364115 3.69140625 20.87890625 C3.70373291 21.8129126 3.71605957 22.74691895 3.72875977 23.70922852 C3.78357384 26.19627845 3.78357384 26.19627845 6 28 C4.02 28 2.04 28 0 28 C-0.33 26.68 -0.66 25.36 -1 24 C-1.37125 24.66 -1.7425 25.32 -2.125 26 C-4 28 -4 28 -7 28.5 C-10 28 -10 28 -11.875 26.5 C-13.47077027 22.95384384 -13.77252846 19.76878369 -13 16 C-11.61179524 13.29214381 -10.35477218 12.09313083 -8 10 C-5.25 9.5625 -5.25 9.5625 -3 10 C-2.67 10.33 -2.34 10.66 -2 11 C-2 8.69 -2 6.38 -2 4 C-3.73575649 3.12563582 -3.73575649 3.12563582 -6 3 C-8.75256794 4.85164036 -8.75256794 4.85164036 -11 7 C-8.85409409 1.81406072 -5.78331941 -0.88974145 0 0 Z " fill="#F1E6F1" transform="translate(41,46)"/>
<path d="M0 0 C2.31 0 4.62 0 7 0 C7.33 7.59 7.66 15.18 8 23 C10.31 20.36 12.62 17.72 15 15 C14.67 14.01 14.34 13.02 14 12 C16.31 12 18.62 12 21 12 C21 12.66 21 13.32 21 14 C19.3203125 15.62109375 19.3203125 15.62109375 17.125 17.4375 C14.53806278 19.58400884 12.88815626 21.16776562 11 24 C12.62269547 26.29332975 14.24803639 28.58470136 15.875 30.875 C16.33519531 31.52597656 16.79539062 32.17695312 17.26953125 32.84765625 C17.71425781 33.47285156 18.15898438 34.09804687 18.6171875 34.7421875 C19.02565918 35.3182373 19.43413086 35.89428711 19.85498047 36.48779297 C21.06102808 38.15228393 21.06102808 38.15228393 23 40 C20.36 40 17.72 40 15 40 C15.33 39.34 15.66 38.68 16 38 C13.36 34.7 10.72 31.4 8 28 C7.67 31.63 7.34 35.26 7 39 C7.66 39.33 8.32 39.66 9 40 C6.36 40 3.72 40 1 40 C1.99 39.505 1.99 39.505 3 39 C3 26.46 3 13.92 3 1 C2.01 0.67 1.02 0.34 0 0 Z " fill="#EDDFEE" transform="translate(76,34)"/>
<path d="M0 0 C1.32 0.66 2.64 1.32 4 2 C4.08152344 4.54232342 4.14073716 7.08199202 4.1875 9.625 C4.22520508 10.69427734 4.22520508 10.69427734 4.26367188 11.78515625 C4.33024446 16.62276416 3.55559453 19.74738338 1 24 C-1.375 23.75 -1.375 23.75 -4 23 C-6.36798238 19.37278953 -6.177768 16.68001338 -5.625 12.52734375 C-4.50643707 8.00415491 -2.28248709 4.0343591 0 0 Z " fill="#39327E" transform="translate(16,44)"/>
<path d="M0 0 C2.31 0 4.62 0 7 0 C6.98952637 1.00377686 6.97905273 2.00755371 6.96826172 3.04174805 C6.93196547 6.77836518 6.9090646 10.51496683 6.89013672 14.25170898 C6.88010104 15.86664453 6.86646949 17.481562 6.84912109 19.09643555 C6.82476535 21.42240875 6.81349253 23.74814095 6.8046875 26.07421875 C6.79436493 26.79212082 6.78404236 27.51002289 6.77340698 28.24967957 C6.77251097 32.28499868 7.21042318 35.36821174 9 39 C8.38125 38.79375 7.7625 38.5875 7.125 38.375 C6.073125 38.189375 6.073125 38.189375 5 38 C4.34 38.66 3.68 39.32 3 40 C3 27.13 3 14.26 3 1 C2.01 0.67 1.02 0.34 0 0 Z " fill="#F9F9FB" transform="translate(4,29)"/>
<path d="M0 0 C2.4375 0.1875 2.4375 0.1875 5 1 C7.04622571 4.08827694 7.29236534 6.77096028 7.4140625 10.421875 C7.45273438 11.44667969 7.49140625 12.47148438 7.53125 13.52734375 C7.5621875 14.59082031 7.593125 15.65429688 7.625 16.75 C7.66367188 17.82894531 7.70234375 18.90789063 7.7421875 20.01953125 C7.83634631 22.67951775 7.92197387 25.3394994 8 28 C5.69 28 3.38 28 1 28 C1.33 27.34 1.66 26.68 2 26 C2.08372659 24.47851674 2.10730027 22.95344222 2.09765625 21.4296875 C2.09443359 20.53378906 2.09121094 19.63789062 2.08789062 18.71484375 C2.07532227 17.30912109 2.07532227 17.30912109 2.0625 15.875 C2.05798828 14.93011719 2.05347656 13.98523437 2.04882812 13.01171875 C2.03702357 10.67441613 2.02055759 8.33723939 2 6 C0.68 5.34 -0.64 4.68 -2 4 C-2.66 5.98 -3.32 7.96 -4 10 C-4.33 9.01 -4.66 8.02 -5 7 C-2 2 -2 2 0 0 Z " fill="#E3E3ED" transform="translate(64,41)"/>
<path d="M0 0 C0.06058594 0.67546875 0.12117188 1.3509375 0.18359375 2.046875 C0.26738281 2.93890625 0.35117187 3.8309375 0.4375 4.75 C0.55931641 6.07257812 0.55931641 6.07257812 0.68359375 7.421875 C0.91179422 9.91695948 0.91179422 9.91695948 1.59375 11.90625 C2.19207729 14.98993679 1.58634984 17.66853034 1.0625 20.75 C0.86785156 21.92046875 0.67320313 23.0909375 0.47265625 24.296875 C0.31667969 25.18890625 0.16070312 26.0809375 0 27 C0.66 27.33 1.32 27.66 2 28 C-0.64 28 -3.28 28 -6 28 C-5.34 27.67 -4.68 27.34 -4 27 C-4 18.75 -4 10.5 -4 2 C-4.66 1.67 -5.32 1.34 -6 1 C-1.125 0 -1.125 0 0 0 Z " fill="#E8E8F0" transform="translate(57,41)"/>
<path d="M0 0 C0.99 0 1.98 0 3 0 C3.20638953 28.35792096 3.20638953 28.35792096 2 39 C1.34 39 0.68 39 0 39 C0 26.13 0 13.26 0 0 Z " fill="#FEFEFE" transform="translate(80,34)"/>
<path d="M0 0 C4.875 0.875 4.875 0.875 6 2 C6.38606152 7.01879978 5.97663853 9.90712202 3 14 C1.0625 13.625 1.0625 13.625 -1 13 C-2.5635348 9.87293041 -2.39958487 6.42017557 -2 3 C-1.34 2.01 -0.68 1.02 0 0 Z " fill="#94409A" transform="translate(34,58)"/>
<path d="M0 0 C1.32 0.33 2.64 0.66 4 1 C3.34 1.495 2.68 1.99 2 2.5 C-0.34303485 5.42879356 -0.45323949 7.32757194 -0.2734375 11.02734375 C0.07853212 13.56655314 0.85635603 15.71271206 2 18 C-0.375 17.6875 -0.375 17.6875 -3 17 C-5.45485943 13.31771085 -5.82932584 10.27545652 -5 6 C-3.55625961 3.6105342 -1.99679341 1.99679341 0 0 Z " fill="#F7F1F7" transform="translate(33,56)"/>
<path d="M0 0 C2.31 0 4.62 0 7 0 C7 2 7 2 5.390625 3.65625 C4.68421875 4.2646875 3.9778125 4.873125 3.25 5.5 C2.55390625 6.1084375 1.8578125 6.716875 1.140625 7.34375 C-0.84460792 8.87976963 -2.71872045 9.9723966 -5 11 C-4.55527344 10.45730469 -4.11054687 9.91460937 -3.65234375 9.35546875 C-3.08644531 8.64003906 -2.52054687 7.92460938 -1.9375 7.1875 C-1.36902344 6.47980469 -0.80054687 5.77210937 -0.21484375 5.04296875 C0.18605469 4.36878906 0.58695312 3.69460937 1 3 C0.67 2.01 0.34 1.02 0 0 Z " fill="#E2CBE3" transform="translate(90,46)"/>
</svg>
