<svg width="40" height="40" viewBox="0 0 40 40" fill="none" xmlns="http://www.w3.org/2000/svg">
<g clip-path="url(#clip0_47_27)">
<path d="M18.9051 30.0516C19.0028 30.1339 19.1034 30.215 19.2067 30.295C17.1788 31.6435 14.7971 32.3614 12.3617 32.3583C10.4331 32.3583 8.5312 31.9069 6.80822 31.0403C5.08523 30.1737 3.58895 28.9159 2.43906 27.3675C1.28916 25.8192 0.517569 24.0232 0.18599 22.1233C-0.145589 20.2233 -0.0279522 18.2722 0.529493 16.4258C1.08694 14.5795 2.06872 12.8893 3.39631 11.4903C4.7239 10.0913 6.36046 9.02236 8.17509 8.36905C9.98971 7.71573 11.932 7.49613 13.8467 7.72781C15.7614 7.9595 17.5953 8.63603 19.2017 9.70331C19.1017 9.78831 19.0017 9.86664 18.9267 9.95331C17.4827 11.1988 16.3242 12.741 15.5301 14.4747C14.736 16.2085 14.325 18.093 14.3251 20C14.3259 21.9054 14.7352 23.7885 15.5252 25.5224C16.3153 27.2563 17.4678 28.8007 18.9051 30.0516ZM27.6401 7.63997C25.1067 7.63997 22.7551 8.39997 20.7984 9.70331C20.8984 9.78831 20.9984 9.86664 21.0734 9.95331C22.5174 11.1988 23.6759 12.741 24.47 14.4747C25.2642 16.2085 25.6752 18.093 25.6751 20C25.6742 21.9054 25.265 23.7885 24.4749 25.5224C23.6849 27.2563 22.5324 28.8007 21.0951 30.0516C20.9973 30.1339 20.8967 30.215 20.7934 30.295C22.8213 31.6435 25.2031 32.3614 27.6384 32.3583C29.2617 32.359 30.8691 32.0398 32.369 31.419C33.8689 30.7982 35.2317 29.888 36.3797 28.7403C37.5277 27.5926 38.4383 26.23 39.0595 24.7303C39.6807 23.2306 40.0003 21.6232 40.0001 20C39.9996 16.722 38.6973 13.5785 36.3794 11.2606C34.0616 8.94277 30.918 7.64042 27.6401 7.63997ZM20.0001 10.29C19.8401 10.4133 19.6845 10.5416 19.5334 10.675C18.1977 11.8337 17.1267 13.266 16.3931 14.8749C15.6596 16.4839 15.2805 18.2317 15.2817 20C15.279 21.8708 15.7025 23.7177 16.52 25.4004C17.3375 27.0831 18.5277 28.5575 20.0001 29.7116C20.1601 29.5872 20.3156 29.4583 20.4667 29.325C21.8025 28.1663 22.8734 26.7339 23.607 25.125C24.3406 23.5161 24.7196 21.7682 24.7184 20C24.7209 18.1294 24.2973 16.2829 23.4798 14.6005C22.6622 12.9181 21.4722 11.4439 20.0001 10.29Z" fill="white"/>
</g>
<defs>
<clipPath id="clip0_47_27">
<rect width="40" height="40" fill="white"/>
</clipPath>
</defs>
</svg>
